<?xml version="1.0" standalone="no"?><!DOCTYPE svg PUBLIC "-//W3C//DTD SVG 1.1//EN" "http://www.w3.org/Graphics/SVG/1.1/DTD/svg11.dtd"><svg t="1716693658926" class="icon" viewBox="0 0 1024 1024" version="1.1" xmlns="http://www.w3.org/2000/svg" p-id="14640" xmlns:xlink="http://www.w3.org/1999/xlink" width="48" height="48"><path d="M0 0m146.285714 0l731.428572 0q146.285714 0 146.285714 146.285714l0 731.428572q0 146.285714-146.285714 146.285714l-731.428572 0q-146.285714 0-146.285714-146.285714l0-731.428572q0-146.285714 146.285714-146.285714Z" fill="#449275" p-id="14641"></path><path d="M789.577143 452.278857a163.986286 163.986286 0 0 0-14.116572-134.692571 165.851429 165.851429 0 0 0-178.614857-79.579429A164.022857 164.022857 0 0 0 473.161143 182.857143 165.851429 165.851429 0 0 0 314.88 297.691429a164.022857 164.022857 0 0 0-109.641143 79.542857 165.888 165.888 0 0 0 20.406857 194.486857 163.986286 163.986286 0 0 0 14.08 134.692571 165.851429 165.851429 0 0 0 178.651429 79.579429A164.022857 164.022857 0 0 0 542.061714 841.142857a165.851429 165.851429 0 0 0 158.244572-114.907428 164.096 164.096 0 0 0 109.677714-79.542858 165.851429 165.851429 0 0 0-20.48-194.413714zM350.866286 503.698286l55.405714 32 0.109714-184.722286a21.284571 21.284571 0 0 1 10.752-18.651429l131.072-75.702857c1.170286-0.731429 2.925714-1.645714 3.913143-2.194285a123.355429 123.355429 0 0 0-202.349714 94.72v153.051428a1.974857 1.974857 0 0 0 1.097143 1.499429z m398.153143-84.333715l3.876571 2.304a123.355429 123.355429 0 0 0-183.222857-127.744l-132.498286 76.434286a1.974857 1.974857 0 0 0-0.768 1.718857v63.963429l160-92.416a21.357714 21.357714 0 0 1 21.540572 0l131.072 75.702857z m-506.404572-20.626285a122.88 122.88 0 0 1 64.182857-54.125715l-0.036571 4.534858v151.405714a21.321143 21.321143 0 0 0 10.752 18.651428l160.036571 92.416-55.405714 31.963429a1.974857 1.974857 0 0 1-1.865143 0.182857l-132.534857-76.580571a123.501714 123.501714 0 0 1-45.129143-168.448z m295.131429 13.531428L697.782857 504.685714a21.284571 21.284571 0 0 1 10.678857 18.651429v155.940571a123.392 123.392 0 0 0 19.053715-222.610285l-132.498286-76.507429a1.974857 1.974857 0 0 0-1.865143 0.182857l-55.405714 31.963429z m-101.376 58.624l71.277714-41.179428 71.277714 41.142857v82.285714l-71.314285 41.142857-71.241143-41.142857v-82.285714z m26.806857 298.678857a122.989714 122.989714 0 0 0 166.034286-7.68c23.149714-23.113143 36.132571-54.454857 36.169142-87.149714v-153.014857a1.938286 1.938286 0 0 0-1.097142-1.536l-55.369143-31.963429v184.758858a21.284571 21.284571 0 0 1-10.788572 18.651428l-131.072 75.702857c-1.133714 0.731429-2.889143 1.682286-3.876571 2.194286z m-200.777143-167.350857a122.953143 122.953143 0 0 0 14.701714 82.651429 123.501714 123.501714 0 0 0 168.484572 45.165714l132.498285-76.507428a1.974857 1.974857 0 0 0 0.804572-1.682286v-64l-160.036572 92.416a21.357714 21.357714 0 0 1-21.504 0L266.24 604.525714l-3.913143-2.340571z" fill="#FFFFFF" p-id="14642"></path></svg>